<svg width="512" height="512" viewBox="0 0 512 512" fill="none" xmlns="http://www.w3.org/2000/svg">
  <!-- Cherry Red Background -->
  <rect width="512" height="512" fill="#E31837"/>
  
  <!-- GoGrub Text with Paintbrush Effect -->
  <g transform="translate(256, 256)">
    <!-- G -->
    <path d="M-180 -20 Q-180 -60 -150 -70 Q-120 -80 -100 -60 Q-80 -40 -85 -10 L-85 30 Q-85 50 -100 55 Q-120 60 -140 50 L-150 45 L-145 35 Q-130 40 -120 40 Q-110 35 -110 25 L-110 0 L-130 0 L-135 -10 L-100 -10 L-100 -20 Q-95 -40 -110 -50 Q-125 -60 -145 -55 Q-160 -50 -160 -30 Q-160 -10 -150 0" 
          fill="white" 
          stroke="white" 
          stroke-width="8" 
          stroke-linecap="round" 
          stroke-linejoin="round"
          opacity="0.95"
          style="paint-order: stroke fill;"/>
    
    <!-- o -->
    <path d="M-70 -20 Q-70 -50 -50 -55 Q-30 -60 -15 -45 Q0 -30 0 -10 Q0 10 -15 25 Q-30 40 -50 35 Q-70 30 -70 10 L-70 -20 M-55 -15 L-55 5 Q-55 20 -45 25 Q-35 30 -25 20 Q-15 10 -15 -10 Q-15 -30 -25 -35 Q-35 -40 -45 -35 Q-55 -30 -55 -15" 
          fill="white" 
          stroke="white" 
          stroke-width="6" 
          stroke-linecap="round" 
          stroke-linejoin="round"
          opacity="0.95"
          style="paint-order: stroke fill;"/>
    
    <!-- G (second) -->
    <path d="M15 -20 Q15 -60 45 -70 Q75 -80 95 -60 Q115 -40 110 -10 L110 30 Q110 50 95 55 Q75 60 55 50 L45 45 L50 35 Q65 40 75 40 Q85 35 85 25 L85 0 L65 0 L60 -10 L95 -10 L95 -20 Q100 -40 85 -50 Q70 -60 50 -55 Q35 -50 35 -30 Q35 -10 45 0" 
          fill="white" 
          stroke="white" 
          stroke-width="8" 
          stroke-linecap="round" 
          stroke-linejoin="round"
          opacity="0.95"
          style="paint-order: stroke fill;"/>
    
    <!-- r -->
    <path d="M125 -20 L125 35 L140 35 L140 -15 Q140 -30 148 -38 Q156 -46 168 -43 L170 -58 Q152 -62 140 -48 L140 -55 L125 -55 L125 -20" 
          fill="white" 
          stroke="white" 
          stroke-width="5" 
          stroke-linecap="round" 
          stroke-linejoin="round"
          opacity="0.95"
          style="paint-order: stroke fill;"/>
    
    <!-- u -->
    <path d="M175 -55 L175 10 Q175 25 185 32 Q195 40 208 37 Q220 34 225 20 L225 -55 L240 -55 L240 18 Q240 38 223 48 Q206 58 185 53 Q164 48 160 28 L160 -55 L175 -55" 
          fill="white" 
          stroke="white" 
          stroke-width="5" 
          stroke-linecap="round" 
          stroke-linejoin="round"
          opacity="0.95"
          style="paint-order: stroke fill;"/>
    
    <!-- b -->
    <path d="M-175 -90 L-175 35 L-160 35 L-160 25 Q-150 42 -130 45 Q-110 48 -95 35 Q-80 22 -80 0 Q-80 -22 -95 -35 Q-110 -48 -130 -45 Q-148 -42 -160 -28 L-160 -90 L-175 -90 M-160 -5 Q-160 -25 -145 -32 Q-130 -40 -115 -30 Q-100 -20 -100 0 Q-100 20 -115 28 Q-130 36 -145 28 Q-160 20 -160 0 L-160 -5" 
          fill="white" 
          stroke="white" 
          stroke-width="5" 
          stroke-linecap="round" 
          stroke-linejoin="round"
          opacity="0.95"
          style="paint-order: stroke fill;"
          transform="translate(185, 0)"/>
    
    <!-- Swooping underline -->
    <path d="M-190 60 Q-100 75 0 72 Q100 69 190 58" 
          stroke="white" 
          stroke-width="12" 
          stroke-linecap="round" 
          fill="none"
          opacity="0.95"/>
  </g>
</svg>
